<?xml version="1.0" standalone="no"?>
<!DOCTYPE svg PUBLIC "-//W3C//DTD SVG 20010904//EN"
 "http://www.w3.org/TR/2001/REC-SVG-20010904/DTD/svg10.dtd">
<svg version="1.0" xmlns="http://www.w3.org/2000/svg"
 width="474.000000pt" height="312.000000pt" viewBox="0 0 474.000000 312.000000"
 preserveAspectRatio="xMidYMid meet">

<g transform="translate(0.000000,312.000000) scale(0.100000,-0.100000)"
fill="#000000" stroke="none">
<path d="M3122 2498 c-37 -18 -65 -74 -59 -116 3 -20 8 -44 11 -52 5 -11 -16
-29 -80 -65 -94 -54 -114 -80 -114 -144 0 -39 -1 -40 -52 -59 -29 -11 -195
-76 -368 -145 -358 -141 -388 -153 -393 -146 -5 7 -137 288 -137 293 0 2 34
20 75 39 150 72 285 188 285 246 0 25 -34 39 -112 46 -98 8 -284 36 -422 65
-136 28 -233 27 -276 -2 -18 -13 -42 -40 -53 -61 -17 -34 -18 -43 -7 -80 15
-54 113 -150 196 -195 46 -24 64 -39 69 -60 3 -15 44 -108 91 -208 46 -99 84
-186 84 -192 0 -13 -150 -132 -167 -132 -6 0 -24 11 -40 24 -80 67 -215 125
-343 146 -151 25 -336 -12 -480 -96 -79 -46 -203 -169 -249 -247 -18 -31 -47
-96 -64 -144 -42 -121 -49 -280 -18 -404 53 -212 192 -386 383 -481 114 -56
185 -72 323 -72 142 0 210 16 335 77 68 34 103 59 175 132 96 95 151 184 186
295 l17 55 71 3 c41 2 71 -1 71 -7 0 -22 58 -75 105 -97 54 -26 126 -31 184
-14 47 13 108 57 129 92 16 27 20 28 89 28 121 0 178 37 178 115 0 77 -57 115
-172 115 -67 0 -68 1 -91 36 -13 19 -22 39 -20 43 9 20 540 721 547 721 4 0
35 -57 69 -127 l60 -128 -31 -24 c-18 -14 -64 -58 -104 -98 -128 -131 -196
-305 -195 -498 1 -515 526 -865 1002 -669 140 58 273 171 349 298 18 31 47 95
64 143 30 83 32 96 32 233 -1 132 -3 152 -28 224 -86 246 -266 413 -518 482
-74 21 -262 24 -322 7 l-37 -12 -31 60 c-32 65 -159 339 -159 345 0 2 36 24
80 50 82 47 116 80 126 121 6 21 11 23 78 23 79 0 106 12 131 60 19 37 19 64
-2 107 -26 56 -56 63 -255 62 -103 0 -182 -5 -196 -11z m376 -74 c26 -18 28
-31 5 -56 -14 -16 -34 -18 -185 -18 l-168 0 -12 26 c-11 23 -10 29 11 45 20
17 41 19 175 19 121 0 156 -3 174 -16z m-1683 -49 c94 -19 214 -38 269 -44 54
-5 100 -12 103 -14 8 -9 -63 -57 -108 -72 -67 -24 -180 -53 -235 -60 -73 -9
-154 20 -263 95 -92 63 -107 84 -76 110 21 17 74 28 110 23 17 -3 107 -20 200
-38z m1473 -117 c-2 -6 -65 -47 -139 -90 -137 -80 -171 -90 -193 -55 -17 28 2
47 105 104 88 49 99 53 162 53 48 0 67 -4 65 -12z m-1348 -382 c41 -88 128
-275 193 -414 65 -140 117 -255 115 -257 -2 -2 -20 -8 -41 -13 l-39 -11 -33
72 c-18 40 -108 231 -199 426 -91 195 -166 357 -166 360 0 3 21 4 47 2 l48 -3
75 -162z m1251 -27 c399 -849 397 -844 334 -844 -27 0 -33 7 -68 75 -60 121
-427 910 -427 920 0 11 51 40 65 36 5 -1 48 -85 96 -187z m-243 126 c12 -25
17 -45 12 -45 -6 0 -10 -6 -10 -13 0 -19 -45 -59 -54 -50 -5 5 -5 -2 -2 -14 4
-14 2 -24 -7 -30 -8 -4 -20 -18 -26 -31 -7 -13 -18 -21 -24 -19 -13 4 -36 -21
-36 -38 0 -5 4 -2 10 8 5 9 14 17 20 17 6 0 6 -5 -1 -12 -5 -7 -30 -39 -53
-70 -33 -44 -46 -55 -55 -46 -9 9 -12 6 -10 -12 2 -26 -27 -80 -43 -80 -16 0
-9 19 11 30 11 6 18 15 14 21 -10 16 -46 -39 -39 -60 3 -11 0 -23 -7 -28 -7
-4 -26 -28 -41 -51 -16 -24 -31 -42 -33 -39 -6 5 13 42 35 70 8 9 10 17 4 17
-5 0 -18 -16 -29 -35 -10 -19 -23 -35 -27 -35 -5 0 -4 -7 3 -15 9 -11 6 -22
-21 -54 -17 -22 -36 -38 -40 -35 -5 3 -6 -1 -4 -9 7 -17 -52 -92 -71 -91 -8 1
-14 -2 -14 -7 0 -5 5 -9 12 -9 8 0 7 -5 -3 -16 -18 -17 -61 -11 -79 11 -11 13
16 53 322 458 91 120 102 148 66 171 -13 8 -35 3 -95 -21 -106 -43 -409 -162
-454 -178 l-37 -13 -15 39 c-15 39 -15 40 6 48 46 18 489 193 632 250 83 33
152 60 156 60 3 1 15 -19 27 -44z m-350 -265 c-6 -18 -300 -410 -308 -410 -4
0 -18 24 -30 53 -13 28 -38 83 -56 121 -19 39 -31 73 -27 77 5 5 91 40 192 79
102 39 192 75 200 80 21 12 33 12 29 0z m-1233 -97 c91 -20 194 -71 174 -85
-11 -8 -10 -9 4 -4 11 4 31 -3 49 -15 l29 -21 -21 -23 c-44 -47 -62 -49 -116
-16 -65 40 -153 68 -239 76 -303 29 -585 -234 -585 -544 0 -146 55 -276 165
-386 101 -102 245 -165 380 -165 103 0 254 54 338 121 20 17 42 27 49 23 6 -4
8 -3 5 2 -3 6 10 30 30 54 19 25 41 58 49 73 9 16 20 25 26 21 7 -4 8 -3 4 5
-4 6 -2 27 5 46 13 35 14 35 72 35 68 0 67 3 15 -109 -41 -86 -89 -153 -106
-146 -7 3 -10 0 -6 -6 13 -22 -113 -124 -209 -168 -224 -102 -495 -65 -692 96
-317 259 -310 764 14 1016 166 128 354 168 566 120z m2252 16 c258 -36 453
-195 540 -441 23 -64 27 -90 27 -203 1 -110 -2 -141 -22 -200 -30 -90 -123
-245 -147 -245 -3 0 -4 4 -1 8 3 5 -1 9 -9 9 -12 0 -12 -3 -3 -15 10 -12 6
-20 -21 -44 -32 -29 -33 -29 -54 -11 -22 18 -22 18 -4 -3 17 -21 17 -22 -30
-52 -115 -74 -227 -106 -368 -105 -242 2 -467 140 -572 353 -59 118 -76 200
-70 330 4 111 26 191 75 280 45 81 116 165 178 207 l30 22 12 -31 c6 -17 9
-35 5 -41 -3 -6 -1 -7 4 -4 6 4 13 1 16 -7 3 -7 -12 -30 -34 -51 -68 -64 -107
-119 -140 -196 -28 -64 -33 -89 -37 -181 -4 -89 -1 -118 17 -177 12 -40 19
-77 15 -83 -4 -6 -3 -8 3 -5 5 3 20 -12 32 -33 12 -22 33 -53 47 -70 20 -23
23 -33 15 -49 -6 -11 -7 -22 -2 -25 13 -8 20 4 13 22 -5 15 -4 15 14 2 10 -7
24 -19 29 -25 27 -27 137 -88 193 -107 161 -53 368 -18 495 83 20 17 42 27 49
23 6 -4 8 -3 4 4 -3 6 6 24 22 41 15 17 43 56 62 87 132 218 98 488 -84 670
-111 110 -229 158 -399 159 l-88 0 -20 44 c-10 24 -17 46 -15 49 4 4 90 18
128 21 9 0 52 -4 95 -10z m-1712 -69 c17 -55 15 -64 -28 -95 -23 -16 -49 -30
-57 -31 -17 -1 -98 -54 -83 -54 5 0 24 11 43 25 42 31 54 32 19 2 -80 -67
-124 -97 -135 -93 -8 3 -11 -1 -7 -11 5 -12 1 -14 -18 -8 -18 5 -21 4 -9 -4
15 -10 11 -13 -20 -15 -8 -1 -15 -6 -15 -11 0 -20 -17 -36 -32 -31 -8 3 -11 1
-8 -4 8 -12 -74 -72 -88 -63 -6 3 -7 1 -3 -5 4 -7 -19 -30 -59 -59 -52 -37
-65 -52 -65 -73 0 -50 2 -50 347 -50 280 0 323 -2 323 -15 0 -13 -58 -15 -460
-15 -253 0 -460 3 -460 8 1 7 68 60 425 335 88 68 207 160 265 205 58 44 108
81 112 82 4 0 9 -9 13 -20z m-535 -136 c65 -26 111 -55 105 -65 -3 -4 -99 -80
-213 -167 -114 -88 -215 -169 -225 -180 -28 -31 -33 -94 -11 -131 33 -56 64
-61 359 -61 146 0 265 -3 265 -7 0 -16 -59 -109 -94 -149 -48 -56 -128 -108
-207 -134 -53 -18 -81 -21 -165 -18 -93 3 -107 6 -180 42 -147 73 -241 200
-266 360 -34 222 104 446 320 517 75 25 244 21 312 -7z m2301 10 c221 -65 369
-300 331 -526 -40 -235 -230 -398 -466 -398 -147 0 -272 57 -367 168 -118 138
-142 346 -59 512 28 56 114 160 132 160 5 0 30 -44 55 -97 150 -325 149 -323
233 -323 30 0 45 7 69 31 54 54 42 101 -98 388 -23 46 -41 88 -41 93 0 14 154
9 211 -8z m-1628 -150 l67 -146 -33 -39 c-30 -37 -35 -39 -89 -39 l-57 0 -6
38 c-9 54 -43 159 -66 204 l-19 38 57 45 c32 25 63 45 69 45 5 0 40 -66 77
-146z m-233 -51 c12 -27 27 -74 35 -105 l13 -58 -59 0 c-51 0 -59 3 -59 18 0
11 -9 44 -19 75 l-20 56 37 30 c20 17 40 30 44 31 4 0 17 -21 28 -47z m-156
-100 c25 -74 27 -73 -74 -73 -49 0 -90 3 -89 8 0 7 129 110 141 111 3 1 13
-20 22 -46z m724 -42 c42 -29 40 -40 -4 -37 -93 8 -164 -77 -133 -159 18 -49
55 -76 113 -82 l47 -6 -31 -18 c-122 -75 -272 11 -274 157 -1 62 35 123 91
154 52 28 146 24 191 -9z m279 -128 c-3 -5 -80 -10 -172 -11 -119 -3 -165 -1
-161 7 5 7 64 11 172 11 91 0 163 -3 161 -7z"/>
<path d="M2751 1690 c-12 -17 -20 -36 -17 -43 2 -7 5 -4 5 6 1 9 4 17 9 17 10
1 45 50 34 50 -4 0 -18 -14 -31 -30z"/>
<path d="M2454 1292 c4 -7 3 -12 -3 -12 -6 0 -15 -9 -21 -20 -9 -16 -8 -18 5
-14 23 9 38 41 23 50 -7 4 -8 3 -4 -4z"/>
<path d="M2386 1212 c-3 -6 -1 -14 5 -17 15 -10 25 3 12 16 -7 7 -13 7 -17 1z"/>
<path d="M1696 628 c3 -5 10 -6 15 -3 13 9 11 12 -6 12 -8 0 -12 -4 -9 -9z"/>
<path d="M1626 603 c-6 -14 -5 -15 5 -6 7 7 10 15 7 18 -3 3 -9 -2 -12 -12z"/>
<path d="M3090 1340 c-6 -11 -8 -20 -6 -20 3 0 10 9 16 20 6 11 8 20 6 20 -3
0 -10 -9 -16 -20z"/>
<path d="M3054 652 c-1 -15 1 -21 3 -14 3 6 9 9 15 6 6 -4 5 2 -1 15 -15 27
-16 27 -17 -7z"/>
<path d="M3930 519 c0 -5 5 -7 10 -4 6 3 10 8 10 11 0 2 -4 4 -10 4 -5 0 -10
-5 -10 -11z"/>
<path d="M1876 1495 c-11 -8 -15 -15 -9 -15 6 0 16 7 23 15 16 19 11 19 -14 0z"/>
<path d="M1710 1359 c0 -5 5 -7 10 -4 6 3 10 8 10 11 0 2 -4 4 -10 4 -5 0 -10
-5 -10 -11z"/>
<path d="M2126 867 c3 -10 9 -15 12 -12 3 3 0 11 -7 18 -10 9 -11 8 -5 -6z"/>
<path d="M2255 830 c10 -11 20 -20 23 -20 3 0 -3 9 -13 20 -10 11 -20 20 -23
20 -3 0 3 -9 13 -20z"/>
</g>
</svg>
